<?xml version="1.0" encoding="utf-8"?>
<svg version="1.1" xmlns="http://www.w3.org/2000/svg" xmlns:xlink="http://www.w3.org/1999/xlink" x="0px" y="0px" viewBox="0 0 1000 1000" enable-background="new 0 0 1000 1000" xml:space="preserve">
<g><path d="M500,10.6c-87.5,0-169.7,23-240.9,63.1C110.4,157.7,10,317.2,10,500l0,0c0,270.3,219.4,489.5,490,489.4c270.6,0,490-219.1,490-489.5C990,229.7,770.6,10.6,500,10.6L500,10.6z M500,928.3C263.2,928.3,71.3,736.5,71.2,500c0-236.5,192-428.2,428.8-428.2c236.8,0,428.7,191.7,428.7,428.2C928.7,736.5,736.8,928.3,500,928.3L500,928.3z"/><path d="M602.8,570.8c56.1-34.8,93.8-96.7,93.9-167.9c0-109.3-88-197.8-196.6-197.8c-108.6,0-196.6,88.6-196.6,197.8c0,71.2,37.7,133.1,93.8,167.9c-112,42.1-192.1,149.8-192.1,277.2c0,13.6,11,24.7,24.6,24.7c13.6,0,24.6-11.1,24.6-24.7c0-136.6,110-247.3,245.7-247.3c135.7,0,245.7,110.7,245.7,247.3c0,13.6,11,24.7,24.6,24.7c13.6,0,24.6-11.1,24.6-24.7C794.8,720.6,714.7,612.9,602.8,570.8L602.8,570.8z M352.6,402.9c0-82,66-148.4,147.4-148.4c81.4,0,147.4,66.5,147.4,148.4c0,81.9-66,148.3-147.4,148.3C418.6,551.2,352.6,484.8,352.6,402.9L352.6,402.9z"/></g>
</svg>
